<?xml version="1.0" encoding="utf-8"?>
<!-- Generator: Adobe Illustrator 16.0.0, SVG Export Plug-In . SVG Version: 6.00 Build 0)  -->
<!DOCTYPE svg PUBLIC "-//W3C//DTD SVG 1.1//EN" "http://www.w3.org/Graphics/SVG/1.1/DTD/svg11.dtd">
<svg version="1.1" xmlns="http://www.w3.org/2000/svg" xmlns:xlink="http://www.w3.org/1999/xlink" x="0px" y="0px" width="456px"
	 height="458px" viewBox="0 0 456 458" enable-background="new 0 0 456 458" xml:space="preserve">
<g id="diamante_3">
	<polygon fill-rule="evenodd" clip-rule="evenodd" fill="#0D6834" points="298.684,168.674 230.174,168.674 161.669,168.674 
		230.174,6.399 230.174,6.399 230.174,6.399 230.167,6.399 230.174,6.389 230.174,6.391 	"/>
</g>
<g id="esmeralda_4">
	<path fill-rule="evenodd" clip-rule="evenodd" fill="#1E8737" d="M298.684,178.367h-68.509h-68.505l-0.004,0.01l68.501,162.267
		l0.008,0.012v-0.004L298.684,178.367L298.684,178.367z M107.627,178.367h-0.006l0.002,0.006L107.627,178.367z"/>
</g>
<g id="diamnate1">
	<polygon fill-rule="evenodd" clip-rule="evenodd" fill="#00532D" points="212.082,6.399 212.082,6.399 143.572,168.684 
		89.528,168.684 	"/>
</g>
<g id="diamante_2">
	<polygon fill-rule="evenodd" clip-rule="evenodd" fill="#0D6834" points="212.082,340.663 212.082,340.663 143.572,178.377 
		89.528,178.377 	"/>
</g>
<g id="esmeralda_6">
	<polygon fill-rule="evenodd" clip-rule="evenodd" fill="#00532D" points="241.164,340.655 241.164,340.651 309.67,178.367 
		363.717,178.367 	"/>
</g>
<g id="esmeralda_5">
	<polygon fill-rule="evenodd" clip-rule="evenodd" fill="#1E8737" points="241.164,6.389 241.164,6.391 309.67,168.674 
		363.717,168.674 	"/>
</g>
<g id="e">
</g>
<g id="m">
</g>
<g id="e2">
</g>
<g id="r">
</g>
<g id="a">
</g>
<g id="pequeñito">
	<g>
		<path fill="#076537" stroke="#076537" stroke-width="3" stroke-miterlimit="10" d="M45.944,453.598
			c-5.081,0-9.869-0.914-14.365-2.744s-8.41-4.379-11.739-7.645c-3.33-3.266-5.948-7.1-7.857-11.502
			c-1.91-4.402-2.864-9.174-2.864-14.318c0-5.047,0.954-9.789,2.864-14.223c1.909-4.434,4.527-8.299,7.857-11.598
			c3.329-3.297,7.202-5.898,11.62-7.809c4.417-1.908,9.151-2.863,14.2-2.863c6.468,0,12.291,1.365,17.466,4.094
			c5.175,2.73,9.467,6.572,12.875,11.525l-5.538,3.881c-2.777-4.07-6.153-7.281-10.129-9.631c-3.976-2.352-8.836-3.527-14.579-3.527
			c-4.197,0-8.086,0.805-11.667,2.414c-3.582,1.609-6.667,3.787-9.253,6.531c-2.588,2.746-4.607,5.949-6.059,9.609
			c-1.452,3.66-2.177,7.525-2.177,11.596s0.71,7.914,2.13,11.525c1.42,3.613,3.424,6.777,6.011,9.49
			c2.587,2.715,5.656,4.875,9.207,6.484c3.55,1.609,7.455,2.414,11.714,2.414c5.9,0,10.831-0.836,14.792-2.508
			c3.96-1.672,6.761-3.676,8.402-6.012v-15.004H50.204v-6.295h25.986v23.24c-0.947,1.609-2.343,3.195-4.189,4.756
			c-1.846,1.563-4.047,2.936-6.603,4.119c-2.556,1.182-5.467,2.146-8.733,2.887C53.399,453.227,49.825,453.598,45.944,453.598z"/>
		<path fill="#076537" stroke="#076537" stroke-width="3" stroke-miterlimit="10" d="M99.789,446.357h43.593v6.295H99.836
			L99.789,446.357z M99.836,381.891h43.546v6.295H99.836V381.891z M99.836,413.176h41.794v6.344H99.836V413.176z"/>
		<path fill="#076537" stroke="#076537" stroke-width="3" stroke-miterlimit="10" d="M167.691,379.381l31.807,59.592l31.477-59.592
			l7.952,73.271h-7.337l-5.349-49.131l-26.837,50.881l-27.074-50.977l-5.207,49.227h-7.384L167.691,379.381z"/>
		<path fill="#076537" stroke="#076537" stroke-width="3" stroke-miterlimit="10" d="M257.271,446.357h43.594v6.295h-43.546
			L257.271,446.357z M257.319,381.891h43.546v6.295h-43.546V381.891z M257.319,413.176h41.794v6.344h-41.794V413.176z"/>
		<path fill="#076537" stroke="#076537" stroke-width="3" stroke-miterlimit="10" d="M329.434,452.652h-7.384v-70.762h25.228
			c2.272,0,4.474,0.174,6.604,0.52c2.13,0.348,4.094,0.979,5.893,1.895c3.376,1.672,6.113,4.172,8.212,7.502
			c2.099,3.328,3.148,7.234,3.148,11.715c0,3.219-0.506,6.137-1.515,8.756c-1.011,2.619-2.304,4.867-3.882,6.744
			c-1.578,1.879-3.368,3.346-5.372,4.402c-2.004,1.059-4.016,1.68-6.035,1.869c2.998,4.607,5.948,9.176,8.852,13.703
			c2.902,4.529,5.806,9.08,8.709,13.656h-8.804c-2.84-4.449-5.673-8.906-8.496-13.371c-2.824-4.465-5.656-8.953-8.496-13.467v-6.295
			c2.146,0,3.85-0.039,5.111-0.119c1.262-0.078,2.635-0.338,4.118-0.781c1.23-0.379,2.358-1.041,3.385-1.986
			c1.024-0.947,1.908-2.076,2.65-3.385c0.741-1.309,1.325-2.793,1.751-4.449s0.639-3.354,0.639-5.088
			c0-3.314-0.631-6.098-1.893-8.355c-1.263-2.256-2.982-4-5.159-5.23c-1.295-0.693-2.738-1.189-4.331-1.49
			c-1.594-0.299-3.29-0.449-5.089-0.449h-17.844V452.652z"/>
		<path fill="#076537" stroke="#076537" stroke-width="3" stroke-miterlimit="10" d="M417.926,378.576l31.57,74.076h-8.046
			l-23.524-56.232l-23.761,56.232h-8.047L417.926,378.576z"/>
	</g>
	<polygon fill-rule="evenodd" clip-rule="evenodd" fill="#21854A" points="408.653,433.994 429.042,433.994 424.876,443.839 
		412.878,443.839 	"/>
</g>
</svg>
